<?xml version="1.0" encoding="utf-8"?>
<!-- Generator: Adobe Illustrator 23.1.1, SVG Export Plug-In . SVG Version: 6.00 Build 0)  -->
<svg version="1.1" id="Layer_1" xmlns="http://www.w3.org/2000/svg" xmlns:xlink="http://www.w3.org/1999/xlink" x="0px" y="0px"
	 viewBox="0 0 425.6 395.6" style="enable-background:new 0 0 425.6 395.6;" xml:space="preserve">
<style type="text/css">
	.st0{fill:#AA55FF;}
	.st1{display:none;fill:#AA55FF;}
</style>
<g>
	<path class="st0" d="M225.4,0c0,0-35.2,10.9-46.1,54.8c0,0-105,23.7-47.5,119.5c0,0-25.6,49.5-65.3,56c0,0-16.8,25.1-50.2,30.2
		l70.8,29.1c0,0-44.3,48.1-74.3,31L0,353.4c0,0,12.9-16.6,35.6-15c0,0,24,1.3,34.9,33.6c0,0,35.5,15.7,38.1,9
		c0,0-6.3-42.1,20.6-43.3c0,0,23.8,1.6,11.6,49.7c0,0,41.7,5.4,54.3-29.8c0,0,21.3,26.9,38.9,1.7c0,0,31.9-19.4,40.2-17.9
		c0,0-15.8,43.5,8.4,53.9c0.4,0.2,0.8,0.2,1.3,0.2c4.6-0.1,30.1-2.5,27.4-46.6c0,0,25.3,2.2,50,31.2c0,0,34.5,21.5,64.3-2.6
		c0,0-21.3-18.8-22.3-28.4c0,0,30.4-26.5,4.6-89.3c0,0-38.9,37.9-56.4,40.5c0,0,10.2-26.9-3.5-49.7c0,0,13.4-57.9-15.2-84.9
		c0,0-100,16.7-76.3-97.9C256.5,67.9,220.4,53.8,225.4,0z"/>
	<path class="st1" d="M930.7,437.8c0,0-27.8,24.5-45,26.5c0,0,6.5-27,3-38.1c0,0,17.2-59.6-1.8-86.2c0,0-86.2-13.3-58.6-101.3
		c0,0-23.7-43-12-79.1c0,0-35.8-2.8-57.3,49.3c0,0-100.9,16.4-61.5,115.4c0,0-25.5,23.3-114.2,58.6c0,0,21.7,25.8,47.3,34.1
		c0,0-11.9,12-29.8,17.4c-2.7,0.8-7.9,1.5-10.7,1.2c-7.6-0.7-27.6-2.4-41.8,15.6l202.5,6.6L731,546.9l201.5,0.1
		c0,0-19.9-29,0.2-51.1C932.7,495.9,952.5,472.1,930.7,437.8z"/>
</g>
<g id="Layer_3">
</g>
</svg>
